<?xml version="1.0" standalone="no"?><!DOCTYPE svg PUBLIC "-//W3C//DTD SVG 1.1//EN" "http://www.w3.org/Graphics/SVG/1.1/DTD/svg11.dtd"><svg t="1678263025064" class="icon" viewBox="0 0 1024 1024" version="1.1" xmlns="http://www.w3.org/2000/svg" p-id="10159" xmlns:xlink="http://www.w3.org/1999/xlink" width="200" height="200"><path d="M467.642182 644.096c27.904 0 52.712727 23.947636 55.342545 53.364364l21.806546 245.620363H82.501818l21.806546-245.620363c2.606545-29.416727 27.438545-53.364364 55.342545-53.364364h307.991273m0-34.909091H159.650909c-45.591273 0-85.876364 37.469091-90.112 85.178182l-22.877091 257.768727c-1.256727 14.242909 7.959273 25.879273 20.619637 25.879273h492.706909c12.660364 0 21.899636-11.636364 20.619636-25.879273l-22.877091-257.745454c-4.212364-47.709091-44.497455-85.201455-90.088727-85.201455z" fill="#ffffff" p-id="10160"></path><path d="M359.424 636.136727l-34.885818-1.186909 18.059636-530.269091c0-20.875636-15.732364-25.367273-28.928-25.367272-19.246545 0-28.974545 8.727273-28.974545 25.972363l18.036363 529.687273-34.885818 1.186909-18.036363-530.292364c0-37.003636 25.646545-61.463273 63.813818-61.463272 38.237091 0 63.883636 24.459636 63.883636 60.881454l-18.082909 530.850909zM497.058909 907.194182a17.454545 17.454545 0 0 1-17.338182-15.685818l-15.732363-154.903273c-1.978182-19.572364-21.969455-35.490909-44.544-35.490909H207.848727c-22.574545 0-42.542545 15.941818-44.544 35.490909l-15.709091 154.903273a17.198545 17.198545 0 0 1-19.130181 15.592727 17.454545 17.454545 0 0 1-15.592728-19.130182l15.709091-154.903273c3.816727-37.492364 38.632727-66.862545 79.266909-66.862545h211.595637c40.657455 0 75.473455 29.370182 79.266909 66.862545l15.732363 154.903273a17.454545 17.454545 0 0 1-17.384727 19.223273z" fill="#ffffff" p-id="10161"></path><path d="M227.304727 754.082909a17.570909 17.570909 0 1 1-35.141818 0 17.570909 17.570909 0 0 1 35.141818 0zM444.578909 871.470545a17.570909 17.570909 0 1 1-35.141818 0 17.570909 17.570909 0 0 1 35.141818 0zM440.738909 822.132364a17.570909 17.570909 0 1 1-35.141818 0 17.570909 17.570909 0 0 1 35.141818 0z" fill="#ffffff" p-id="10162"></path><path d="M667.810909 209.989818a17.454545 17.454545 0 0 1-17.454545-17.454545V64.418909a17.454545 17.454545 0 0 1 34.909091 0v128.093091a17.454545 17.454545 0 0 1-17.454546 17.477818zM756.898909 209.989818a17.454545 17.454545 0 0 1-17.454545-17.454545V64.418909a17.454545 17.454545 0 0 1 34.909091 0v128.093091a17.454545 17.454545 0 0 1-17.454546 17.477818zM845.963636 209.989818a17.454545 17.454545 0 0 1-17.454545-17.454545V64.418909a17.454545 17.454545 0 0 1 34.909091 0v128.093091a17.454545 17.454545 0 0 1-17.454546 17.477818z" fill="#ffffff" p-id="10163"></path><path d="M756.922182 979.618909c-38.958545 0-65.093818-24.901818-65.093818-61.998545l18.525091-544.512 34.90909 1.186909-18.52509 543.930182c0 17.384727 10.146909 26.507636 30.114909 26.507636 13.800727 0 30.184727-4.701091 30.184727-27.089455l-18.525091-543.348363 34.909091-1.186909 18.525091 543.930181c0 37.655273-26.135273 62.580364-65.024 62.580364z" fill="#ffffff" p-id="10164"></path><path d="M868.864 384.116364H644.887273c-34.234182 0-61.021091-20.666182-61.021091-47.034182V277.876364a17.454545 17.454545 0 0 1 34.909091 0v59.182545c0 4.282182 9.914182 12.125091 26.112 12.125091h223.976727c16.197818 0 26.112-7.842909 26.112-12.125091V277.876364a17.454545 17.454545 0 0 1 34.909091 0v59.182545c0.023273 26.391273-26.786909 47.057455-61.021091 47.057455z" fill="#ffffff" p-id="10165"></path><path d="M939.077818 81.384727l-38.493091 181.946182H613.189818l-38.493091-181.946182h364.381091m20.992-34.909091H553.704727c-12.194909 0-19.665455 11.380364-16.756363 25.111273l47.965091 226.676364h343.970909l47.965091-226.676364c2.885818-13.707636-4.584727-25.111273-16.779637-25.111273z" fill="#ffffff" p-id="10166"></path></svg>