<?xml version="1.0" standalone="no"?><!DOCTYPE svg PUBLIC "-//W3C//DTD SVG 1.1//EN" "http://www.w3.org/Graphics/SVG/1.1/DTD/svg11.dtd"><svg t="1678262415136" class="icon" viewBox="0 0 1024 1024" version="1.1" xmlns="http://www.w3.org/2000/svg" p-id="4920" xmlns:xlink="http://www.w3.org/1999/xlink" width="200" height="200"><path d="M432.808 893.463H240.965c-48.61 0-88.157-39.548-88.157-88.158V229.62c0-48.61 39.547-88.157 88.157-88.157H721.65c48.61 0 88.157 39.547 88.157 88.157v227.843c0 13.255-10.745 24-24 24s-24-10.745-24-24V229.62c0-22.143-18.015-40.157-40.157-40.157H240.965c-22.143 0-40.157 18.015-40.157 40.157v575.685c0 22.144 18.015 40.158 40.157 40.158h191.843c13.255 0 24 10.745 24 24s-10.746 24-24 24z" p-id="4921" fill="#ffffff"></path><path d="M304.808 301.462h368.71v48h-368.71zM304.808 493.463h246.768v48H304.808zM718.041 906.812c-97.598 0-177-79.402-177-177s79.402-177 177-177 177 79.402 177 177-79.402 177-177 177z m0-310c-73.337 0-133 59.663-133 133s59.663 133 133 133 133-59.663 133-133-59.663-133-133-133z" p-id="4922" fill="#ffffff"></path><path d="M689.449 720.366c-1.198-1.678-3.115-2.636-5.192-2.636h-35.308c-5.192 0-8.228 5.911-5.192 10.145l58.954 81.561c2.556 3.515 7.749 3.515 10.305 0l91.227-126.216c3.036-4.234 0-10.145-5.192-10.145h-35.388c-2.077 0-3.994 0.959-5.192 2.636l-50.726 70.138c-0.003 0-18.296-25.483-18.296-25.483z" p-id="4923" fill="#ffffff"></path></svg>