<?xml version="1.0" standalone="no"?><!DOCTYPE svg PUBLIC "-//W3C//DTD SVG 1.1//EN" "http://www.w3.org/Graphics/SVG/1.1/DTD/svg11.dtd"><svg t="1678262304094" class="icon" viewBox="0 0 1024 1024" version="1.1" xmlns="http://www.w3.org/2000/svg" p-id="4477" xmlns:xlink="http://www.w3.org/1999/xlink" width="200" height="200"><path d="M907.77 661.55h52.54v26.39c0 101.92-82.49 184.82-183.88 184.82H249.32c-102.36 0-185.63-82.9-185.63-184.82v-26.4h52.54m52.53 0h196.51l52.54 52.81h188.38l52.54-52.81h196.5M776.43 820c63.43 0 116.49-45.6 128.7-105.79H680.49l-52.54 53h-231.9l-52.54-52.8H118.9C131.27 774.53 185.05 820 249.32 820zM669.93 333c-0.65-5-3.86-11.71-6.84-15.82 1.12 5 3.28 12.21 6.84 15.82z" fill="#ffffff" p-id="4478"></path><path d="M789.21 319.27Q710.43 240 631.2 161.2c-13.15-13.09-24.71-13.3-37.52-0.53Q480.21 273.85 367.07 387.36c-5.36 5.36-10.29 11-10.34 20-0.58 5.52 1.83 10.89 5.92 15.06 21 21.45 42.27 42.68 63.5 63.91 2.32 2.32 4.78 5.88 8.71 3.19 20.12-13.75 42.78-5 64.1-7.75 18.79-2.42 33 3.09 43.29 18.48 9.78 14.66 20.68 17.06 36.51 8.25 16.72-9.3 34.9-12.5 51.56 1.57 6.15 5.2 8.16-1.17 10.8-3.79q74.29-74 148.21-148.29c14.11-14.28 13.98-24.54-0.12-38.72z m-98.09 56.05c-0.25 0.88-1.49 0.51-1.51 1.51s1.24 2.15 1.41 3.26c0.39 2.48-0.56 4.42-3 6.19l-3.18 1.24a14.71 14.71 0 0 1-3.77 0.91 20 20 0 0 1 1.53-5.4c0.28-0.6 0.73-1 0.75-1.61a15.07 15.07 0 0 0-0.58-2.33 75.91 75.91 0 0 0-4.77-15.88c-2.82-6.09-6.77-11-11-12.74 0.35 9 0.56 20.18 1.46 30.19 0.14 1.5 0.43 3.39-0.4 4s-1.56-0.08-2.05 0.89c-0.4 0.8 0.39 1.49 0.51 2.51 0.49 4.28-5.48 6.51-10.14 7.4a9.15 9.15 0 0 1 1-4.9c0.22-0.47 0.67-0.89 0.84-1.37a19.94 19.94 0 0 0 0.29-2c1-4.3 2.12-9.09 1.83-14-0.32-5.11-1.73-10.26-4.41-16.44-0.16-0.38-0.35-0.91-0.57-1.33-0.1-0.17-0.17-1-0.73-0.68s-0.38 0.67-0.31 1.28c0.14 1.14 1.11 3.29 0.2 3.78-1-0.64-1.53-2.53-2.46-3.37 0.34 1.43 0.92 3 0.48 4.09-1-0.71-1.46-2.54-2.14-3.95a4.07 4.07 0 0 0-3.13-0.94c0.32 1.93 1.33 4.13 0.57 5.63-1.37-0.57-2-3.06-3.12-4.24 0.47 1.72 1.29 3.58 0.67 4.87-1.21-0.66-2.09-3.46-2.61-5-3.84-0.77-7.65-1.58-10.8-4.07-2.87 3-5.87 6.33-9.86 9a51.39 51.39 0 0 1-14.44 6.39c-2.3 0.66-4.73 1-7.22 1.83-7.08 2.29-15.39 5-22 8.8 1.25 2.55 2.83 5.26 4.27 8.19a52.09 52.09 0 0 1 3.75 9 27.67 27.67 0 0 0 2.21 6.78c1.1 2.14 2.64 4.17 4.06 6.41 0.53 0.83 1.35 2 2.08 3.12s1.84 2.43 1.94 3.17c0.15 1-1.14 1.51-1.37 2.46 0.33 1.1 1.1 1.1 1.55 1.91 0 4.15-5.27 8.36-11 8.64-0.56-3.36 1.58-5.52 1.82-8.38 0.32-4-2.08-8.86-4.32-12.62a23.29 23.29 0 0 0-2.45-3.67c-0.83-0.9-1.93-1.61-2.8-2.51-2.53-2.62-5.11-6.25-7.51-9.07a67.43 67.43 0 0 1 1.42 7.26c0.1 0.78 0 1.59 0.11 2.25 0.24 1.2 0.91 2.54 1.09 3.83 0 0.19 0.54 1-0.15 0.64 0.08 0.62 0.69-0.06 0.72 0.69 0.47 3.27 3.55 9 5 12.76 0.31 0.83 0.69 2.54 0.18 3.08s-1.35-0.11-1.74 0.61c-0.2 1 0.34 2 0.37 2.85 0.15 4-5.34 6.22-9.56 6.72-0.56-2.26 0.35-4.18 1.1-6.07a15.17 15.17 0 0 0 1.33-5.88 24.45 24.45 0 0 0-1.1-6.84 29.25 29.25 0 0 0-3.24-7.48c-0.57-0.84-1.45-1.5-2.05-2.41-1.83-2.78-3.23-6.61-4.8-10.11-7.46 3.32-12.77 0.66-17.18-3.6-1.51-1.45-2.71-3.26-4.34-4.72-1-0.87-2.23-1.44-3.29-2.3a27.59 27.59 0 0 1-3-3c-1-1.18-1.87-2.43-2.81-3.51-4.51-5.2-11.33-7.3-16.77-9.94-1.44 2.77-6.45 4.16-10.45 5.67a20.38 20.38 0 0 1-3.83 1.08c-1.23 0.21-2.49 0-3.44 0.35-1.68 0.68-2.82 2.93-5.32 3.59-1.08 0.29-3.15-0.4-4.27-0.59-2.12-0.34-4.15-0.81-5.57-2.6l-0.62-1.43c-0.45-2.31 1.19-3.9 2.45-5.94a32.86 32.86 0 0 0 3.6-8.87c0.48-1.74 1.24-3.81 0.92-5.84-0.14-0.88-0.62-1.59-0.76-2.4a10.45 10.45 0 0 1 0.62-4.86 22.69 22.69 0 0 1 3.39-5.76c-0.57-0.48-1.07-0.67-1.29-1.31-0.31-0.9 0.5-1.63 0.54-2.38-2.2-0.25-5.63-0.58-8.09-1.81a6.4 6.4 0 0 1-3.66-4.15l0.12-0.05 0.06 0.12a43.06 43.06 0 0 0 13.07 2.08 6.35 6.35 0 0 1 3.65-2.16c-0.88-0.77-2.94-1.92-3.31-4 1.39 0.29 4 1.45 6 2a18.53 18.53 0 0 0 2.09 0.54c1.45 0.12 3.08-0.61 3.86 0.62 0.64 1 0 1.95 0.06 3.13 6.73 3.69 14.08 3.33 23 0.09a39.6 39.6 0 0 0 4.58-2c1.25-0.65 2.38-1.62 3.73-2.33a60.47 60.47 0 0 1 5.84-2.39c6-2.41 11.77-4.11 17.66-5.92 8.1-2.5 16-6.09 24.09-9.57 14.22-6.16 27.29-12.23 37.65-20.32 2.14-1.67 3.73-3.3 7-4.46 1.83-0.65 3.73-1.17 5.64-1.87s3.93-1.64 5.85-2.38a18.17 18.17 0 0 1 10.13-1.09 13.3 13.3 0 0 1 7.59 5.6c2.15 3.1 3.38 7.08 4.58 10.92a224.34 224.34 0 0 0 8.43 22.44 81.73 81.73 0 0 0 5.24 10.78c1 1.66 2.2 3.1 3 4.7A16.06 16.06 0 0 1 677 337a16.08 16.08 0 0 0 0.73 2.69c0.6 1.06 1.6 0.95 2.34 2.43 1.18 2.32 1.31 5.42 1.92 8.06s1.77 5.5 2.67 8.16c1.32 3.89 3 8.42 4.88 12.94 0.53 1.34 1.8 3.25 1.58 4.04zM540.54 605.37c-7.25-2-7.86 6.78-7.49 12.29 0.72 10.83 1.27 23.31 13.91 26.64 7.64 2 7.16-6.7 7.78-13.17-1.32-9.92-1.91-22.29-14.2-25.76zM485.21 513.89c-12.72 3.47-14.72 16.22-16.41 27.52-0.78 5.15 1 12.25 7.6 10.43 12.21-3.39 14.19-14.94 16.5-26.33-1.61-4.37 0.7-13.9-7.69-11.62zM513.37 563.08a5.06 5.06 0 0 0-7.64 0.76c-5.62 7.73-3.57 16.4-2.39 24.9a6 6 0 0 0 0.67 1.58c2.62 5.45 3.63 13.93 11.9 12 7.51-1.76 6.38-9.79 7-16.21-1.19-8.36-2.5-16.96-9.54-23.03zM484.29 584.29c-12.24 3.47-12.59 16.2-14.81 26.93 1.52 4.91 0.17 14.2 8.08 12 12.34-3.42 13.6-15.59 14.31-26.56 0.37-5.66-0.59-14.35-7.58-12.37zM560.44 535.33c-12 3.81-19 12.81-20.8 25.19-0.76 5.38 2.53 8.51 8.52 8 8.74-0.82 21-15.78 20.53-25.18-0.08-5.49-2.53-9.82-8.25-8.01z" fill="#ffffff" p-id="4479"></path></svg>