<?xml version="1.0" standalone="no"?><!DOCTYPE svg PUBLIC "-//W3C//DTD SVG 1.1//EN" "http://www.w3.org/Graphics/SVG/1.1/DTD/svg11.dtd"><svg t="1678354217763" class="icon" viewBox="0 0 1024 1024" version="1.1" xmlns="http://www.w3.org/2000/svg" p-id="6618" xmlns:xlink="http://www.w3.org/1999/xlink" width="200" height="200"><path d="M855.9 850.8h-44.1v-88.5h43.6v-45.9h-43.6V643c1.1-7.6-3.2-15.1-9.7-19.4 0 0-30.7-24.3-49-39.4-2.7-2.7-5.9-4.9-9.7-5.9v-1.1c-3.8 1.1-7.5 2.7-9.7 5.9-15.6 14-31.8 27-49 38.8-6.5 4.3-10.2 11.9-9.7 19.4v73.4h-24.8v-73.4c1.1-7.5-3.2-15.1-9.7-19.4 0 0-30.7-24.3-49-39.4-3.2-5.4-10.8-6.5-15.6-3.2-1.6 1.1-2.7 2.7-3.8 4.3-15.6 14-31.8 27-49 38.8-6.5 4.3-10.2 11.9-9.7 19.4v73.4h-24.8V642c1.1-7.6-3.2-15.1-9.7-19.4 0 0-30.7-24.3-49-39.4-3.2-5.4-10.8-6.5-15.6-3.2-1.6 1.1-2.7 2.7-3.8 4.3-15.6 14-31.8 27-49 38.8-6.5 4.3-10.2 11.9-9.7 19.4v73.9h-28V643c1.1-7.6-2.7-15.1-9.7-19.4 0 0-30.7-24.3-49-39.4-3.2-5.4-10.8-6.5-15.6-3.2-1.6 1.1-2.7 2.7-3.8 4.3-15.6 14-31.8 27-49 38.8-6.5 4.3-10.2 11.9-9.7 19.4V717h-43.6v45.9H187v89h-43.6v58.3h712.7v-59.3h-0.2z m-531.3 0.5v-89h24.8v89h-24.8z m187.3 0h-24.8v-89h24.8v89z m163.1 0h-24.8v-89H675v89zM254.1 346.4l7-2.2h7.5c2.1 0 205.1 6.5 337.5 6.5 58.1 0 83.4-1.1 93.7-2.2 23.2-17.8 58.1-35.1 87.8-35.1h10.8l6.5 2.7c26.4 10.3 47.4 26.4 63.5 43.7 2.7-4.9 5.9-12.9 10.8-24.8-10.2-29.1-41.5-98.7-113-126.8l-6.5-2.7h-10.8c-29.1 0-64.1 17.8-87.7 35.1-9.7 1.1-35 2.2-93.7 2.2-133 0-335.4-6.5-337.5-6.5h-7.5l-7 2.2c-67.8 24.3-112 89.5-110.4 161.3 0 36.7 0 71.2 9.7 95.5 1.1 2.7 3.8 4.3 6.5 3.2 11.3-4.3 12.9-4.3 19.9-15.1 6.8-62 52.6-115.4 112.9-137z" p-id="6619" fill="#ffffff"></path><path d="M922 472.6c-1.1-2.7-14.5-54.6-53.2-97.2-16.1-18-37.1-33.9-63.4-44.2l-6.4-2.7h-10.8c-29 0-64 18-87.6 35.5-9.7 1.1-34.9 2.2-93.5 2.2-132.7 0-334.8-6.6-337-6.6h-7.5l-7 2.2c-60.2 21.8-102.1 76.5-108.6 139.8-1.1 7.6-1.1 15.8-1.1 23.5l5.8 53.4-6-54.1c0 37.1 0 73.2 10.7 96.9l0.2 2.1c7.5-7.6 15-15.3 23.6-21.8l1.1-1.1 15.6-14.7c-2.1-20.2-2.7-41-2.7-61.2 0-87.4 67.2-113 75.2-115.8 14.5 0 209.6 6.6 337.5 6.6 109.6 0 113.9-4.4 116.6-7.1 12.4-12.6 44.1-30.6 63.4-30.6h0.5c59.7 24 82.2 92.8 86 105.4-1.1 1.1-2.7 1.1-3.8 1.1-4.8-0.5-9.7-2.2-14-4.4-12.9-4.9-26.3-7.1-40.3-6-24.2 0.5-48.4 2.2-72.6 5.5l-3.8 0.5v3.8c-2.1 25.1-7 49.7-15 73.2 5.9-4.4 12.9-6 20.4-6 10.7 0.5 21 4.9 28.5 12.6 4.3-12.4 7.5-25.2 9.7-38.2 12.9-1.1 23.7-1.6 33.3-1.6 6.4 0 12.9 0.5 19.3 1.1 10.8 6 22.6 9.3 34.4 9.3 23.1 0.5 43.5-14.2 50.5-35.5l3.8-12-1.8-13.9z" p-id="6620" fill="#ffffff"></path></svg>